<svg version="1.2" xmlns="http://www.w3.org/2000/svg" viewBox="0 0 800 800" width="600" height="600">
	<title>hacash_logo-svg</title>
	<style>
		.s0 { fill: #ffcc00 } 
	</style>
	<path id="ㄜ" fill-rule="evenodd" class="s0" d="m478.2 443.1l-52.1 55.5c-25-5.3-47.4-7.4-67.7-5.6q-30.2 1.7-51.7 13.4-21.4 11.6-33.8 33-11.7 20.5-11.7 48.1 0 50.8 40.2 77.7 40.1 25.8 104.3 25.8 54.1 0 99.1-33.9l-15.3-12.3 26.1-21.6 13.9 10.8c21.3-23.9 39.2-55.9 54.1-95.6l103.1 37.2c-10.7 33.4-25.1 63.9-42.8 91.3q-12.2 18.9-26.6 35.4l15 11.6-26.1 24.9-13.8-11.1q-4.9 4.5-10.1 8.7-34.8 28.6-80.2 44.7-44.6 15.2-99 15.2-57.2 0-104.4-14.3-47.3-14.3-82-40.2-33.9-26.8-52.7-64.2-18.7-37.5-18.7-82.9 0-45.6 16.1-82.1 16.8-36.6 46.3-62.4 30.4-26.7 71.4-40.1c27.9-9.5 58.1-14.1 91.4-13.5v-88.4h-318.4v-98.6h318.4v-142.2l107.7 29.8v112.4h269.7v98.6h-269.7zm-107.7-438.5l107.7 29.5v32.5l-107.7-29.7z"/>
</svg>