<svg version="1.2" xmlns="http://www.w3.org/2000/svg" viewBox="0 0 1200 1200" width="800" height="800">
	<title>HacashLogo</title>
	<style>
		.s0 { fill: #f7af34 } 
		.s1 { fill: none;stroke: #ffffff;stroke-linecap: round;stroke-linejoin: round;stroke-width: 36 } 
		.s2 { fill: #ffffff } 
	</style>
	<circle id="bgc" class="s0" cx="600" cy="600" r="500"/>
	<g id="HACD">
		<g id="ps1">
			<path id="Layer" class="s1" d="m600 930.5l-405-435.4 131.6-107.3 135.7-14.2h275.4l135.7 14.2 131.6 107.3-405 435.4"/>
			<path id="Layer" class="s1" d="m600 930.5l-202.5-405-70.9-137.7 135.7 20.3h275.4l135.7-20.3-70.9 137.7-202.5 405"/>
			<path id="Layer copy" class="s1" d="m195 495.1l202.5 30.4 64.8-117.4 137.7 0.4 137.7-0.4 64.8 117.4 202.5-30.4"/>
		</g>
		<path id="ㄜ" class="s2" d="m574.5 734.7q-17.9-5.1-31.7-16.3-13.8-11.2-20.5-25.6-9.3-20.2-9.3-40.3 0-20.2 8.7-37.8 8.9-17.6 25.9-29.4 17.3-11.9 41-14.4v-25h-108.8v-40h108.8v-38.7h40.3v38.7h103.7v40h-103.7v61.1q-8.3-0.6-11.9-0.6-20.4 0-35.2 6.4-14.7 6.4-22.4 17.6-7.3 10.9-7.3 24.3 0 7.7 2.2 14.4 4.5 13.1 17.6 21.4 13.1 8 27.5 8 19.9 0 34.6-12.1 15-12.5 16.6-34.9l34.9 5.8q-3.8 27.8-16.6 46-12.8 18.3-30.4 26.6-17.6 8.3-37.8 8.3-13.1 0-26.2-3.5z"/>
	</g>
</svg>