<svg version="1.2" xmlns="http://www.w3.org/2000/svg" viewBox="0 0 1200 1200" width="800" height="800">
	<title>HacashLogo</title>
	<style>
		.s0 { fill: #ffcc00 } 
		.s1 { fill: #ffffff } 
	</style>
	<circle id="bgc" class="s0" cx="600" cy="600" r="500"/>
	<g id="BTC big">
		<path id="ㄜ" fill-rule="evenodd" class="s1" d="m410.5 592.5l-19 20.2c-9.1-2-17.2-2.7-24.6-2.1q-11 0.7-18.8 4.9-7.8 4.2-12.4 12-4.2 7.5-4.2 17.6 0 18.5 14.6 28.2 14.6 9.5 38 9.5 19.7 0 36.1-12.4l-5.5-4.5 9.5-7.8 5 3.9c7.8-8.7 14.3-20.4 19.7-34.8l37.6 13.5c-3.9 12.2-9.1 23.3-15.6 33.3q-4.4 6.9-9.7 12.9l5.5 4.2-9.5 9.1-5-4.1q-1.9 1.7-3.7 3.2-12.7 10.4-29.3 16.3-16.2 5.5-36 5.5-20.8 0-38.1-5.2-17.2-5.2-29.8-14.6-12.4-9.8-19.2-23.4-6.8-13.7-6.8-30.2 0-16.6 5.8-29.9 6.2-13.3 16.9-22.8 11.1-9.7 26-14.6c10.2-3.4 21.2-5.1 33.3-4.9v-32.2h-104.9v-35.9h104.9v-51.8l39.2 10.9v40.9h87.2v35.9h-87.2zm-39.2-159.7l39.2 10.7v11.9l-39.2-10.8z"/>
		<path id="B" fill-rule="evenodd" class="s1" d="m843.9 577.2c55.8 13.6 90.3 47.2 83.6 121-8.6 92.6-76.3 115.7-174.5 121.7l0.3 97-57.7-0.1v-95.8l-46.2-0.5v95.7l-57.7-0.2-0.4-96.9c-14.2 0.8-27.5 0.2-42-0.2l-75.9 0.6 11.6-69.8c0 0 42.3 1.4 42 0.1 15.7-0.1 20.4-12.9 21.4-19.7l0.4-152.2 0.7-109c-3.1-12.4-10.4-26.3-33.9-25.7l-42-0.2 0.5-61.7 79.9-0.1c12.1 1 23.8 0.7 36.8 0.1l-0.1-95.7 57.8 0.1-0.6 93.3c15.5-1.2 31.2-1.1 46.9-1.1l0.6-93.2 57.8 0.1v95.7c75 6.4 134.6 29.7 141.1 98.9 5 51.3-15.2 81.2-50.4 97.8zm-288.6 0.4c-1.3 0.3-4-0.3-6.5 0.3 1.3-0.3 4 0.3 6.5-0.3zm95 44.7l0.2 128.5c39.3-0.5 162.3 8.4 162.6-63.8-0.4-76-123.6-65.2-162.8-64.7zm-0.3-175.7v116.8c33 1 137.1 8.1 136.7-57.4-0.2-69.5-103.6-58.4-136.7-59.4z"/>
	</g>
</svg>