<svg version="1.2" xmlns="http://www.w3.org/2000/svg" viewBox="0 0 1200 1200" width="1200" height="1200">
	<title>img (1)-svg</title>
	<style>
		.s0 { fill: #f7af34 } 
	</style>
	<path id="btc" fill-rule="evenodd" class="s0" d="m600 1100c-276.5 0-500-223.5-500-500 0-276.5 223.5-500 500-500 276.5 0 500 223.5 500 500 0 276.5-223.5 500-500 500zm-189.5-556.7h87.2v-35.9h-87.2v-40.9l-39.2-10.9v51.8h-104.9v35.9h104.9v32.2c-12.1-0.2-23.1 1.5-33.3 4.9q-14.9 4.9-26 14.6-10.7 9.5-16.9 22.8-5.8 13.3-5.8 29.9 0 16.5 6.8 30.2 6.8 13.6 19.2 23.4 12.6 9.4 29.8 14.6 17.3 5.2 38.1 5.2 19.8 0 36-5.5 16.6-5.9 29.3-16.3 1.8-1.5 3.7-3.2l5 4.1 9.5-9.1-5.5-4.2q5.3-6 9.7-12.9 9.8-15 15.6-33.3l-37.6-13.5c-5.4 14.4-11.9 26.1-19.7 34.8l-5-3.9-9.5 7.8 5.5 4.5q-16.4 12.4-36.1 12.4-23.4 0-38-9.5-14.6-9.7-14.6-28.2 0-10.1 4.2-17.6 4.6-7.8 12.4-12 7.8-4.2 18.8-4.9c7.4-0.6 15.5 0.1 24.6 2.1l19-20.2zm-39.2-98.7l39.2 10.8v-11.9l-39.2-10.7zm523 34.8c-6.5-69.2-66.1-92.5-141.1-98.9v-95.7l-57.8-0.1-0.6 93.2c-15.7 0-31.4-0.1-46.9 1.1l0.6-93.3-57.8-0.1 0.1 95.7c-13 0.6-24.7 0.9-36.8-0.1l-79.9 0.1-0.5 61.7 42 0.2c23.5-0.6 30.8 13.3 33.9 25.7l-0.7 109-0.4 152.2c-1 6.8-5.7 19.6-21.4 19.7 0.3 1.3-42-0.1-42-0.1l-11.6 69.8 75.9-0.6c14.5 0.4 27.8 1 42 0.2l0.4 96.9 57.7 0.2v-95.7l46.2 0.5v95.8l57.7 0.1-0.3-97c98.2-6 165.9-29.1 174.5-121.7 6.7-73.8-27.8-107.4-83.6-121 35.2-16.6 55.4-46.5 50.4-97.8zm-345.5 98.5c2.5-0.6 5.2 0 6.5-0.3-2.5 0.6-5.2 0-6.5 0.3zm264.3 109.1c-0.3 72.2-123.3 63.3-162.6 63.8l-0.2-128.5c39.2-0.5 162.4-11.3 162.8 64.7zm-26.4-181c0.4 65.5-103.7 58.4-136.7 57.4v-116.8c33.1 1 136.5-10.1 136.7 59.4z"/>
</svg>