<svg version="1.2" xmlns="http://www.w3.org/2000/svg" viewBox="0 0 1200 1200" width="1200" height="1200">
	<title>img-svg</title>
	<style>
		.s0 { fill: #f7af34 } 
	</style>
	<path id="hac" fill-rule="evenodd" class="s0" d="m600 1100c-276.5 0-500-223.5-500-500 0-276.5 223.5-500 500-500 276.5 0 500 223.5 500 500 0 276.5-223.5 500-500 500zm69-581h238v-87h-238v-99.2l-95-26.3v125.5h-281v87h281v78c-29.4-0.5-56.1 3.5-80.7 11.9q-36.2 11.8-63 35.4-26 22.8-40.9 55.1-14.2 32.2-14.2 72.4 0 40.1 16.5 73.2 16.6 33 46.5 56.6 30.7 22.9 72.4 35.5 41.7 12.6 92.1 12.6 48 0 87.4-13.4 40.1-14.2 70.8-39.4 4.6-3.7 8.9-7.7l12.2 9.8 23-22-13.2-10.2q12.7-14.6 23.4-31.3c15.7-24.1 28.4-51.1 37.8-80.5l-91-32.9c-13.1 35.1-28.9 63.3-47.7 84.4l-12.3-9.5-23 19 13.5 10.9q-39.7 29.9-87.5 29.9-56.6 0-92-22.8-35.5-23.7-35.5-68.5 0-24.4 10.3-42.5 11-18.9 29.9-29.1 18.9-10.3 45.6-11.8c17.9-1.6 37.7 0.2 59.7 4.9l46-49zm-95-239.5l95 26.2v-28.7l-95-26z"/>
</svg>