<svg version="1.2" xmlns="http://www.w3.org/2000/svg" viewBox="0 0 1200 1200" width="1200" height="1200">
	<title>img (2)-svg</title>
	<style>
		.s0 { fill: #f7af34 } 
	</style>
	<path id="hacd" fill-rule="evenodd" class="s0" d="m390 362.6c-44.1 4.7-69.6 7.8-71.5 8.7-1.6 0.8-33.1 26.1-70 56.2-42 34.3-67.8 56.1-69.2 58.4-1.7 2.6-2.3 5.1-2.3 9.1 0 3 0.6 6.6 1.3 8 0.7 1.4 93.3 101.5 205.8 222.5 112.5 121 205.8 220.6 207.2 221.2 1.5 0.7 4.6 1.6 7 1.9 3 0.4 5.5 0.1 8.7-1.2 3.8-1.6 34.1-33.8 208.7-221.7 112.4-120.8 205-221.1 205.8-222.7 0.8-1.7 1.5-5.4 1.5-8.3 0-3.6-0.7-6.3-2.3-8.8-1.4-2.3-27.3-24.1-69.2-58.4-36.9-30.1-68.2-55.3-69.8-56.1-1.7-0.9-28-4.1-73.7-8.9l-71-7.5-278.5 0.2zm-30.2 49.4c-0.1-0.3 16.2 1.9 36.2 4.9 20.1 3 36.6 5.6 36.8 5.8 0.1 0.2-7.6 14.3-17 31.4-9.5 17.1-17.5 31-17.8 31-0.3 0-8.9-16.3-19.2-36.3-10.3-19.9-18.9-36.5-19-36.8zm443.6 4.9c19.7-2.9 36-5.3 36.2-5.1 0.2 0.2-8 16.7-18.4 36.8-10.3 20.1-18.9 36.5-19.2 36.5-0.3 0-8.3-13.9-17.8-31-9.4-17.1-17.1-31.2-17-31.4 0.2-0.2 16.4-2.8 36.2-5.8zm-523.7 33c21.9-18 40.2-32.6 40.6-32.5 0.4 0.1 10.5 19 22.3 41.9 11.7 23 21.3 42 21.2 42.2-0.2 0.2-27.8-3.7-61.4-8.8-33.7-5-61.5-9.3-61.8-9.6-0.4-0.3 17.3-15.2 39.1-33.2zm597.3-28.6c1.2-2.4 2.5-4.2 2.9-4 0.4 0.1 18.6 14.9 40.4 32.8 21.9 17.9 39.5 32.7 39.1 33-0.3 0.3-28.1 4.6-61.8 9.6-33.6 5.1-61.2 9-61.3 8.8-0.2-0.2 8.4-17.4 19.1-38.2 10.6-20.7 20.4-39.7 21.6-42zm-403.9 5.8l254.2 0.5 22.9 41.5c12.6 22.8 24.8 45 31.3 57l-90.5 181c-49.8 99.5-90.7 181-91 181-0.3 0-41.1-81.2-90.7-180.5-49.7-99.3-90.3-181-90.3-181.6 0-0.7 11.1-21.2 24.6-45.8 13.5-24.5 25.7-46.5 27-48.9zm-228.5 94.1l2.5 0.5c1.3 0.3 32.6 5 69.5 10.5 36.8 5.5 67.3 9.9 67.7 9.9 0.4 0 32.3 63.1 70.8 140.3 63.1 126.1 69.7 139.8 65.7 135.7-2.5-2.4-64.5-69-137.8-148-73.3-78.9-134.4-144.7-135.8-146.2zm651.5 9c32.1-4.9 58.7-8.9 58.9-9 0.2 0-0.7 1.2-2.1 2.7-1.4 1.5-62.5 67.3-135.8 146.2-73.3 79-135.3 145.6-137.7 148-4 4.1 2.6-9.6 135.4-275.5l11.4-1.8c6.2-1 37.7-5.8 69.9-10.6zm-295.3 208.1q20.2 0 37.8-8.3 17.6-8.3 30.4-26.6 12.8-18.2 16.6-46l-34.9-5.8q-1.6 22.4-16.6 34.9-14.7 12.1-34.6 12.1-14.4 0-27.5-8-13.1-8.3-17.6-21.4-2.2-6.7-2.2-14.4 0-13.4 7.3-24.3 7.7-11.2 22.4-17.6 14.8-6.4 35.2-6.4 3.6 0 11.9 0.6v-61.1h103.7v-40h-103.7v-38.7h-40.3v38.7h-108.8v40h108.8v25q-23.7 2.5-41 14.4-17 11.8-25.9 29.4-8.7 17.6-8.7 37.8 0 20.1 9.3 40.3 6.7 14.4 20.5 25.6 13.8 11.2 31.7 16.3 13.1 3.5 26.2 3.5z"/>
</svg>