<svg version="1.2" xmlns="http://www.w3.org/2000/svg" viewBox="0 0 520 200" width="520" height="200">
	<title>hacash_logof</title>
	<style>
		tspan { white-space:pre } 
		.s0 { fill: #f7af34 } 
	</style>
	<path id="icon" fill-rule="evenodd" class="s0" d="m98 184c-46.5 0-84-37.5-84-84 0-46.5 37.5-84 84-84 46.5 0 84 37.5 84 84 0 46.5-37.5 84-84 84zm11.6-97.6h40v-14.6h-40v-16.7l-16-4.4v21.1h-47.2v14.6h47.2v13.1c-4.9-0.1-9.4 0.6-13.5 2q-6.1 2-10.6 5.9-4.4 3.9-6.9 9.3-2.4 5.4-2.4 12.2 0 6.7 2.8 12.3 2.8 5.5 7.8 9.5 5.2 3.8 12.2 5.9 7 2.1 15.5 2.1 8 0 14.6-2.2 6.8-2.4 11.9-6.6 0.8-0.6 1.5-1.3l2.1 1.6 3.8-3.7-2.2-1.7q2.2-2.4 4-5.2c2.6-4.1 4.7-8.6 6.3-13.6l-15.3-5.5q-3.3 8.9-8 14.2l-2.1-1.6-3.8 3.2 2.2 1.8q-6.6 5-14.7 5-9.5 0-15.4-3.8-6-4-6-11.5 0-4.1 1.8-7.1 1.8-3.2 5-4.9 3.1-1.8 7.6-2c3-0.3 6.4 0 10.1 0.8l7.7-8.2zm-16-40.3l16 4.4v-4.8l-16-4.3z"/>
	<path id="hacash  copy 3" fill-rule="evenodd" class="s0" d="m197.4 157.5l0.1-110.2 14.9-7.3v43.7h0.1q0.6-0.7 1.8-2.8 1.3-2.2 3.2-4.3 1.9-2.2 4.6-3.8 2.7-1.7 6.1-1.7 8 0 11.2 7.1 3.3 7.2 3.2 22.2l0.2 57.1h-14.9l-0.2-51.6q0-9-1.1-12.1-1.1-3.4-4.6-3.4-1.6 0-3.3 1.2-1.5 1-2.8 2.6-1.1 1.5-2.1 3.1-1 1.5-1.4 2.4l-0.1 57.8zm101.1-82.4l-0.2 75.4-12.5 9-0.9-12q-2.8 4.3-6.9 8.3-4.2 3.8-9.8 3.8-3.5 0-6.9-2.4-3.3-2.3-5.7-7.4c-1.6-3.5-1.6-7-2.1-13.3-0.4-5.4-0.5-12-0.5-19.6 0-8.4-0.2-15.5 1-21.2 1.3-5.8 1.3-10.4 3.4-13.9q3.2-5.5 7.5-7.9 4.3-2.3 8.8-2.3 5.7 0 12.2 0.9 6.7 1 12.6 2.6zm-23.9 65.7q2.8 0 5.1-2.4 2.5-2.6 3.8-5.5v-43.9q-1.5-0.3-3.3-0.3-1.6-0.2-3.5-0.2-5.5 0-8.2 5.7-2.5 5.8-2.5 20.8 0.1 14.8 2 20.3 2.1 5.5 6.6 5.5zm73.4-7.2l3 16c-0.5 0.5-1.7 3.3-2.6 4.1-1 0.8-3.7 2.7-5 3.6-1.3 0.8-9.4 2.3-11.5 2.3q-11.4 0-17.3-10.5-5.8-10.5-5.8-32.7-0.1-23.1 6.1-34.1 6.2-11.2 18.1-11.2 4.4 0 8.1 1.4c2.4 0.8 8.4 5.7 9.3 6.2l-4 14.3c-0.7-0.3-4-2.9-5.8-3.5q-2.5-1.2-5.6-1.2-5.6 0-8.2 6.6-2.6 6.5-2.5 20.8-0.1 14.6 2.5 20.5 2.8 5.8 7.6 5.8c2.3 0 4 0.1 5.9-1 1.9-1.3 7-7.1 7.7-7.4zm55.3-58.5l-0.2 75.4-12.5 9-1-12q-2.8 4.3-6.9 8.3-4.1 3.8-9.7 3.8-3.6 0-7-2.4-3.3-2.3-5.7-7.4-2.4-5.2-3.8-13.3-1.4-8.1-1.3-19.6-0.1-12.6 1.9-21.2 1.9-8.6 5.1-13.9 3.2-5.5 7.4-7.9 4.3-2.3 8.8-2.3 5.8 0 12.3 0.9 6.6 1 12.6 2.6zm-23.9 65.7q2.7 0 5.1-2.4 2.4-2.6 3.8-5.5l-0.1-43.9q-1.5-0.3-3.2-0.3-1.7-0.2-3.6-0.2-5.4 0-8.1 5.7-2.5 5.8-2.6 20.8 0.1 14.8 2.1 20.3 2.1 5.5 6.6 5.5zm35.4 12.1l-0.4-17c0.2 0.1 3.4 2.7 5.5 4.1 1.7 1.1 5 2.2 6.2 2.7q2 0.7 3.9 0.7 3.4 0 5-1.4 1.8-1.7 1.8-6.5 0-3.1-1.5-5.7-1.5-2.9-3.9-5.5-2.1-2.6-4.8-5.2-2.7-2.9-4.9-6.3-2.3-3.5-3.8-7.8-1.5-4.3-1.6-10.1 0.1-11.2 5-17.4 5-6.4 14.3-6.4 5.6 0 9.1 1.4 3.7 1.2 5.2 1.9v15.4c-0.5-0.1-8.3-3.3-10.6-3.3-4.5 0-8.3 3.3-8.4 7.7q-0.1 3.1 1.5 5.8 1.6 2.3 4 5 2.3 2.4 5.1 5.2 2.8 2.6 5.2 6 2.4 3.3 4 7.9 1.5 4.3 1.4 10.2 0.2 5.3-1 9.8-1.2 4.5-3.6 8.1-2.3 3.4-5.9 5.5-3.7 1.9-9 1.9-3.5 0-6.5-0.7-2.7-0.7-5.1-1.9-2.2-1.2-3.9-2.1-1.5-1.2-2.3-2zm46.8 4.6l-0.4-108.1 15.4-9.4v43.7h0.1q0.6-0.7 1.9-2.8 1.2-2.2 3.1-4.3 1.9-2.2 4.6-3.8 2.7-1.7 6.1-1.7 8 0 11.3 7.1 3.2 7.2 3.1 22.2l0.2 57.1h-14.9l-0.1-51.6q-0.1-9-1.2-12.1-1.1-3.4-4.6-3.4-1.6 0-3.3 1.2-1.5 1-2.8 2.6-1.1 1.5-2.1 3.1-1 1.5-1.4 2.4l-0.1 57.8z"/>
</svg>