<svg version="1.2" xmlns="http://www.w3.org/2000/svg" viewBox="0 0 640 200" width="640" height="200">
	<title>hacash_logof</title>
	<style>
		tspan { white-space:pre } 
		.s0 { fill: #f7af34 } 
	</style>
	<path id="icon" fill-rule="evenodd" class="s0" d="m76.3 181.1c-44.9-12-71.5-58-59.4-102.8 12-44.9 58-71.5 102.8-59.4 44.9 12 71.5 58 59.4 102.8-12 44.9-58 71.5-102.8 59.4zm36.4-91.2l38.6 10.3 3.8-14.1-38.6-10.4 4.3-16.1-14.3-8.4-5.4 20.4-45.6-12.2-3.8 14.1 45.6 12.2-3.4 12.7c-4.7-1.4-9.2-1.9-13.6-1.6q-6.4 0.3-11.8 3-5.2 2.6-9 7.2-3.7 4.6-5.4 11.1-1.8 6.5-0.6 12.6 1.3 6.1 5.1 11.2 4 5.1 10.2 8.9 6.3 3.9 14.4 6.1 7.8 2.1 14.8 1.6 7.1-0.6 13.2-3.3 0.9-0.4 1.8-0.9l1.5 2.1 4.7-2.5-1.7-2.3q2.7-1.8 5.2-4c3.6-3.3 6.8-7.1 9.6-11.4l-13.3-9.3q-5.5 7.7-11.4 11.6l-1.6-2.1-4.6 2.1 1.7 2.3q-7.7 3.2-15.5 1.1-9.1-2.5-13.9-7.7-4.7-5.4-2.8-12.7 1.1-3.9 3.5-6.4 2.7-2.6 6.2-3.4 3.5-0.9 7.9 0c2.9 0.5 6.1 1.7 9.4 3.4l9.6-5.9zm-5-43l14.3 8.4 1.3-4.7-14.3-8.4z"/>
	<path id="hacash  copy 3" fill-rule="evenodd" class="s0" d="m184.4 176l39-145.6 22.4-9.6-15.6 57.8h0.2q1-1 3.4-3.8 2.5-2.9 5.7-5.7 3.3-2.8 7.5-5 4.2-2.2 8.6-2.2 10.6 0 12.3 9.4 1.8 9.5-3.6 29.3l-20 75.4h-19.7l18.1-68.1q3.1-12 2.8-16.1-0.3-4.4-5-4.4-2.1 0-4.7 1.6-2.3 1.2-4.6 3.4-2 1.9-3.9 4.1-1.8 1.9-2.7 3.2l-20.5 76.3zm162.7-108.8l-26.9 99.6-19.8 11.9 3.1-15.9q-5.3 5.6-12.1 11-6.9 5-14.3 5-4.6 0-8.3-3.1-3.5-3.2-4.9-9.8c-0.9-4.6 0.4-9.3 2-17.6 1.3-7.1 3.5-15.8 6.3-25.9 2.9-11.1 5.1-20.5 8.8-28.1 3.8-7.5 5.4-13.6 9.4-18.3q6.2-7.2 12.7-10.4 6.5-3.1 12.4-3.1 7.6 0 15.9 1.2 8.4 1.3 15.7 3.5zm-54.8 86.7q3.6 0 7.5-3.1 4.2-3.5 7-7.3l15.5-58q-1.9-0.3-4.2-0.3-2.1-0.3-4.6-0.3-7.2 0-12.8 7.5-5.3 7.6-10.7 27.5-5.1 19.5-4.5 26.8 0.9 7.2 6.8 7.2zm99.5-9.4l-1.7 21.1c-0.9 0.7-3.4 4.3-5 5.4-1.6 1-5.7 3.5-7.8 4.8-2 1.1-13.2 3-16 3q-15.1 0-19.2-13.8-4-13.9 3.9-43.2 8.1-30.6 20.2-45.1 12.1-14.8 27.8-14.8 6 0 10.3 1.8c2.9 1.1 9.1 7.6 10.1 8.2l-10.3 18.9c-0.8-0.4-4.4-3.8-6.5-4.7q-2.9-1.5-6.9-1.5-7.4 0-13.2 8.8-5.7 8.5-10.7 27.4-5.3 19.3-3.9 27.1 1.6 7.6 8 7.6c2.9 0 5.1 0.2 8-1.2 3-1.7 11.9-9.4 12.9-9.8zm93.7-77.3l-26.9 99.6-19.8 11.9 3.1-15.9q-5.3 5.6-12.1 11-6.9 5-14.3 5-4.6 0-8.3-3.1-3.5-3.2-4.9-9.8-1.3-6.9-0.3-17.6 1-10.8 5.2-25.9 4.4-16.7 10-28.1 5.6-11.3 11.6-18.3 6.2-7.2 12.7-10.4 6.5-3.1 12.4-3.1 7.6 0 15.9 1.2 8.5 1.3 15.7 3.5zm-54.8 86.7q3.6 0 7.5-3.1 4.3-3.5 7-7.3l15.5-58q-1.9-0.3-4.2-0.3-2.1-0.3-4.6-0.3-7.2 0-12.8 7.5-5.3 7.6-10.7 27.5-5.1 19.5-4.5 26.8 0.9 7.2 6.8 7.2zm42.5 16.1l5.5-22.5c0.2 0.1 3.5 3.6 5.8 5.5 1.9 1.4 5.8 2.8 7.2 3.5q2.4 0.9 4.9 0.9 4.5 0 7.2-1.9 2.9-2.2 4.6-8.5 1.2-4.1 0.1-7.6-1.1-3.8-3.2-7.2-1.9-3.5-4.5-7-2.5-3.7-4.3-8.2-1.7-4.7-2.2-10.4-0.5-5.6 1.5-13.2 4-14.8 12.7-23 8.9-8.5 21.2-8.5 7.4 0 11.5 1.8 4.4 1.6 6.1 2.6l-5.3 20.3c-0.7-0.1-9.8-4.4-12.9-4.4-6 0-12.2 4.4-13.9 10.2q-1.1 4.1 0 7.6 1.3 3.2 3.5 6.6 2.2 3.2 4.9 7 2.8 3.4 4.8 7.9 1.9 4.4 2.4 10.4 0.5 5.6-1.8 13.5-1.6 7-4.8 12.9-3.1 6-7.6 10.8-4.1 4.4-9.7 7.2-5.5 2.5-12.5 2.5-4.7 0-8.3-0.9-3.5-0.9-6.2-2.5-2.4-1.6-4.3-2.9-1.7-1.5-2.4-2.5zm60.2 6l37.8-142.9 23.7-12.3-15.6 57.8h0.2q1-1 3.4-3.8 2.4-2.9 5.7-5.7 3.3-2.8 7.5-5 4.2-2.2 8.6-2.2 10.6 0 12.3 9.4 1.8 9.5-3.6 29.3l-20 75.4h-19.7l18.1-68.1q3.1-12 2.8-16.1-0.3-4.4-5-4.4-2.1 0-4.7 1.6-2.3 1.2-4.6 3.4-2 1.9-3.9 4.1-1.8 1.9-2.7 3.2l-20.5 76.3z"/>
</svg>